<svg preserveAspectRatio="xMidYMid meet" viewBox="364.79999999999995 328.08959999999996 620.5440000000001 663.552" xmlns="http://www.w3.org/2000/svg" version="1.0" style="max-height: 500px" width="620.5440000000001" height="663.552">  <g stroke="none" fill="#ffffff" transform="translate(0.000000,3072.000000) scale(0.100000,-0.100000)"> <path d="M6615 26949 c-33 -4 -103 -13 -156 -19 -52 -6 -111 -15 -130 -20 -18 -6 -49 -10 -67 -10 -46 0 -162 -30 -162 -43 0 -5 24 -38 53 -72 28 -34 77 -93 107 -130 30 -37 71 -87 90 -110 19 -23 94 -113 165 -200 72 -87 157 -190 190 -229 34 -39 72 -85 85 -102 14 -17 42 -52 63 -77 l39 -46 -47 -88 c-26 -48 -51 -92 -55 -98 -4 -5 -25 -44 -47 -85 -53 -98 -94 -173 -103 -185 -25 -35 -90 -170 -86 -180 2 -6 39 -17 83 -24 43 -6 109 -16 146 -21 38 -6 75 -7 83 -2 12 7 174 219 302 398 23 32 58 79 77 104 106 140 155 212 155 231 0 19 -15 44 -146 244 -32 50 -63 98 -69 107 -5 10 -37 61 -70 113 -33 53 -65 104 -70 113 -6 9 -28 44 -50 77 -22 33 -44 68 -50 77 -45 75 -131 210 -153 243 -25 36 -32 40 -72 41 -25 1 -72 -2 -105 -7z"/> <path d="M7370 26860 c0 -16 6 -44 14 -62 15 -37 28 -75 57 -168 12 -36 27 -81 34 -100 7 -19 27 -82 45 -140 18 -58 38 -121 45 -140 28 -80 37 -106 45 -135 4 -16 12 -41 18 -55 5 -14 29 -85 53 -158 23 -73 47 -139 53 -147 9 -11 21 -12 56 -5 25 5 90 16 145 25 55 8 136 22 180 30 44 8 94 15 110 15 17 0 61 7 100 15 67 14 95 32 95 63 0 7 6 34 14 60 8 26 22 76 31 112 20 79 40 150 56 208 20 68 2 71 -176 37 -82 -16 -226 -42 -272 -49 -37 -6 -60 11 -69 52 -6 29 -29 109 -46 157 -5 17 -14 46 -18 65 -19 83 -59 177 -79 186 -31 13 -206 75 -236 84 -16 5 -64 20 -105 34 -102 35 -135 46 -143 46 -4 0 -7 -13 -7 -30z"/> <path d="M5696 26738 c-18 -58 -41 -129 -51 -158 -7 -19 -32 -94 -55 -167 -23 -72 -47 -137 -55 -143 -9 -8 -33 -6 -86 5 -41 9 -99 20 -129 24 -30 5 -73 14 -95 19 -22 6 -65 14 -96 17 -51 6 -58 5 -90 -22 -18 -15 -45 -37 -58 -48 -14 -11 -50 -42 -81 -70 -172 -152 -230 -209 -223 -215 8 -7 88 -25 243 -55 47 -9 114 -22 150 -30 36 -7 106 -21 155 -30 50 -8 125 -22 168 -30 42 -8 112 -22 155 -29 42 -8 112 -22 155 -30 118 -24 124 -23 147 27 10 23 33 80 51 127 17 47 45 119 61 160 17 41 36 92 44 113 37 98 47 124 60 149 8 14 14 30 14 34 0 14 -354 364 -367 364 -8 0 -15 -6 -17 -12z"/> <path d="M6254 26103 c-9 -21 -20 -51 -24 -68 -5 -16 -25 -75 -45 -130 -19 -55 -53 -152 -75 -215 -21 -63 -48 -140 -60 -170 -12 -30 -25 -68 -30 -85 -5 -16 -14 -46 -21 -65 -14 -40 -31 -89 -48 -140 -38 -108 -63 -209 -55 -221 6 -11 63 -5 164 16 36 8 94 20 130 27 65 13 65 13 93 68 16 30 47 97 69 149 22 52 44 101 48 110 15 27 70 151 70 156 0 4 16 40 80 180 35 78 35 78 -26 151 -32 37 -64 75 -73 84 -9 10 -50 56 -91 104 -41 47 -78 86 -82 86 -4 0 -15 -17 -24 -37z"/> <path d="M8814 26049 c-8 -14 -82 -220 -94 -264 -5 -16 -18 -55 -30 -85 -27 -70 -79 -216 -90 -255 -8 -29 -58 -169 -94 -265 -9 -25 -28 -76 -41 -115 -42 -122 -63 -176 -76 -192 -11 -13 -59 -15 -354 -13 -187 1 -346 2 -352 1 -17 -1 -16 -23 2 -58 7 -15 23 -48 34 -73 11 -25 33 -75 49 -111 l29 -66 58 -11 c32 -7 74 -12 92 -12 19 0 78 -7 131 -14 53 -8 151 -22 217 -31 66 -9 165 -23 220 -32 55 -8 120 -13 145 -11 l45 3 269 537 c242 484 268 540 258 562 -9 21 -97 142 -113 156 -3 3 -34 44 -70 91 -85 114 -212 268 -221 269 -4 0 -10 -5 -14 -11z"/> <path d="M5115 25534 c-88 -8 -218 -19 -290 -25 -71 -6 -195 -15 -275 -19 -174 -10 -251 -19 -268 -33 -14 -11 -41 -68 -92 -192 -17 -44 -38 -92 -46 -107 -8 -14 -14 -31 -14 -36 0 -6 -5 -23 -12 -39 -12 -31 -66 -179 -74 -203 -9 -29 9 -39 51 -30 22 5 78 16 125 25 47 9 119 23 160 31 41 9 107 22 145 29 39 8 104 21 145 29 41 8 113 23 160 32 194 37 229 44 305 59 44 9 95 15 114 13 36 -3 39 -7 91 -103 43 -78 82 -148 111 -197 16 -27 29 -51 29 -53 0 -2 19 -36 43 -77 24 -40 46 -80 50 -88 20 -43 57 -95 68 -97 8 -2 32 22 53 52 22 30 47 63 55 73 54 60 91 113 91 130 0 11 -6 33 -14 49 -8 15 -21 46 -29 68 -18 49 -74 189 -92 230 -7 17 -19 48 -28 70 -20 53 -105 262 -122 300 -7 17 -21 51 -32 77 l-18 48 -115 -1 c-63 -1 -187 -8 -275 -15z"/> <path d="M8140 25533 c-68 -15 -147 -31 -290 -58 -105 -21 -205 -41 -290 -60 -36 -7 -99 -21 -140 -30 -41 -9 -95 -21 -120 -27 -25 -6 -67 -14 -93 -19 -46 -8 -77 -23 -77 -38 0 -4 12 -20 28 -37 15 -16 66 -73 112 -127 46 -54 92 -103 101 -108 18 -9 141 1 326 27 56 8 119 14 140 14 51 -1 293 30 318 40 14 5 26 28 38 71 10 35 24 82 31 104 7 22 21 67 30 100 10 33 24 80 32 104 7 24 11 47 8 52 -7 13 -78 9 -154 -8z"/> <path d="M9453 24932 c-10 -10 -34 -39 -54 -63 -77 -93 -201 -242 -224 -267 -13 -15 -67 -79 -120 -142 -54 -63 -121 -142 -150 -175 -29 -33 -83 -97 -120 -142 l-67 -83 68 -88 c38 -49 114 -145 169 -213 55 -68 114 -143 130 -166 36 -50 46 -56 83 -42 15 6 45 14 67 19 35 7 173 43 320 83 65 18 68 38 12 98 -23 25 -53 59 -67 75 -14 16 -55 63 -91 106 -37 42 -76 90 -88 106 l-21 30 27 34 c15 18 66 76 113 128 176 195 161 173 154 238 -3 31 -12 82 -19 112 -7 30 -21 91 -30 135 -9 44 -23 105 -31 135 -7 30 -15 64 -16 74 -4 27 -24 31 -45 8z"/> <path d="M5120 24739 c-25 -4 -88 -17 -140 -29 -52 -12 -116 -26 -142 -30 -52 -10 -88 -26 -88 -40 0 -8 291 -353 320 -380 3 -3 32 -36 65 -75 33 -38 64 -75 70 -81 5 -6 21 -24 34 -40 38 -45 135 -158 141 -164 3 -3 30 -33 59 -67 75 -88 79 -87 116 42 28 95 43 146 61 203 l16 54 -48 71 c-27 39 -80 115 -119 169 -145 200 -161 223 -209 292 -26 39 -53 74 -60 78 -13 9 -15 9 -76 -3z"/> <path d="M4360 24575 c-25 -8 -74 -21 -110 -30 -163 -41 -188 -48 -242 -63 -38 -11 -58 -22 -58 -32 0 -8 68 -96 150 -194 83 -99 150 -184 150 -189 0 -11 -106 -134 -200 -232 -95 -99 -104 -115 -91 -162 6 -21 15 -67 20 -103 5 -36 19 -108 31 -160 12 -52 25 -112 30 -132 4 -20 15 -49 25 -64 l18 -28 19 25 c35 44 60 73 162 189 56 63 158 180 226 260 68 80 127 147 130 150 32 28 210 251 210 263 0 9 -43 71 -95 139 -52 68 -133 173 -180 233 -87 113 -119 146 -139 144 -6 0 -31 -7 -56 -14z"/> <path d="M8017 24328 c-8 -24 -29 -90 -47 -148 -18 -58 -36 -115 -41 -128 -15 -39 -11 -52 46 -131 102 -139 229 -319 290 -406 98 -141 104 -147 145 -137 19 5 71 17 115 26 82 18 157 36 233 56 24 6 46 18 49 26 4 12 -62 103 -102 139 -6 6 -55 62 -110 125 -54 63 -101 117 -105 120 -3 3 -48 55 -100 115 -52 61 -101 117 -109 126 -9 9 -27 29 -41 45 -216 251 -200 239 -223 172z"/> <path d="M4815 23618 c-20 -40 -40 -80 -45 -88 -5 -8 -20 -37 -33 -65 -13 -27 -114 -228 -224 -446 l-200 -397 20 -33 c26 -42 168 -242 177 -249 3 -3 34 -41 67 -85 84 -109 137 -165 156 -165 9 0 20 13 26 33 5 17 26 77 46 132 20 55 40 114 45 130 4 17 18 55 30 85 24 62 107 300 120 345 11 39 63 185 90 255 12 30 26 69 30 85 5 17 15 48 23 70 l15 40 351 3 c389 3 381 1 349 66 -9 17 -33 71 -53 121 -56 133 -55 132 -133 139 -37 4 -114 13 -172 21 -58 7 -168 21 -245 30 -77 9 -186 23 -242 31 -165 23 -155 25 -198 -58z"/> <path d="M7913 23673 c-12 -4 -99 -113 -161 -200 -35 -49 -36 -76 -7 -133 7 -14 20 -43 28 -65 8 -22 36 -92 62 -155 26 -63 54 -133 62 -155 17 -47 34 -87 55 -135 9 -19 30 -71 48 -115 44 -111 63 -150 75 -150 77 3 570 42 755 60 85 9 180 15 210 16 30 0 97 6 148 13 104 15 107 17 142 106 12 30 28 69 35 85 34 78 44 103 60 145 9 25 23 60 31 78 8 18 14 39 14 47 0 8 6 29 14 47 21 49 40 117 34 123 -3 3 -27 1 -54 -4 -27 -6 -87 -17 -134 -26 -47 -9 -114 -23 -150 -30 -103 -22 -208 -43 -300 -60 -47 -9 -118 -22 -157 -30 -161 -33 -231 -47 -293 -60 -133 -28 -136 -28 -158 2 -11 15 -32 51 -46 78 -15 28 -31 57 -36 65 -17 26 -96 164 -104 180 -4 8 -12 24 -19 35 -7 11 -30 52 -52 90 -22 39 -45 79 -52 90 -7 11 -17 30 -22 43 -6 12 -12 22 -13 21 -2 0 -8 -3 -15 -6z"/> <path d="M7585 23120 c-33 -5 -73 -13 -88 -19 -16 -6 -42 -11 -59 -11 -18 0 -57 -7 -88 -16 -53 -15 -57 -18 -79 -67 -13 -29 -37 -81 -54 -117 -61 -134 -76 -167 -112 -255 -40 -94 -74 -172 -106 -241 -23 -50 -24 -68 -2 -85 9 -8 43 -45 76 -84 132 -155 191 -215 208 -215 12 0 22 12 28 33 14 45 66 191 91 257 12 30 25 69 30 85 5 17 18 55 29 85 24 61 112 324 137 410 9 30 22 71 29 90 46 129 51 163 27 159 -4 -1 -34 -5 -67 -9z"/> <path d="M6030 23098 c-47 -4 -134 -15 -195 -23 -60 -9 -128 -15 -150 -15 -55 0 -278 -31 -290 -41 -11 -8 -20 -33 -50 -134 -10 -33 -23 -76 -30 -95 -46 -132 -60 -196 -45 -205 10 -6 47 0 248 40 232 47 362 74 422 87 25 6 65 14 90 18 25 4 65 12 90 18 25 6 81 18 125 27 172 35 184 43 145 92 -12 15 -67 76 -122 136 -82 87 -105 107 -127 106 -14 -1 -64 -6 -111 -11z"/> <path d="M6663 22902 c-16 -16 -46 -55 -68 -86 -37 -53 -111 -156 -357 -494 -49 -66 -88 -124 -88 -129 0 -5 38 -67 85 -138 47 -70 85 -129 85 -131 0 -2 20 -33 45 -70 25 -36 45 -67 45 -69 0 -2 13 -23 29 -47 15 -24 50 -77 76 -118 106 -165 160 -248 206 -318 27 -40 49 -76 49 -81 0 -4 10 -17 23 -29 23 -22 23 -22 162 -7 245 26 500 69 510 85 5 9 -55 88 -160 210 -16 20 -48 58 -70 84 -22 27 -56 68 -75 91 -19 23 -60 73 -90 110 -30 37 -64 78 -75 91 -11 12 -45 52 -75 90 -30 37 -82 99 -115 138 -124 145 -138 168 -116 192 9 9 52 88 154 284 135 259 157 302 157 311 0 17 -48 28 -155 39 -57 5 -116 12 -130 16 -20 5 -31 0 -52 -24z"/> <path d="M5720 22378 c-30 -5 -89 -15 -130 -23 -41 -8 -120 -21 -175 -30 -55 -9 -138 -24 -184 -33 l-84 -17 -13 -40 c-7 -22 -20 -69 -29 -105 -16 -64 -33 -127 -61 -225 -13 -49 -17 -77 -15 -103 1 -15 53 -11 156 13 33 7 105 21 160 30 55 9 118 21 140 25 22 5 43 6 47 2 7 -8 55 -152 82 -247 35 -127 51 -171 65 -188 15 -18 57 -39 111 -57 14 -5 50 -18 80 -30 108 -42 260 -90 292 -92 28 -3 33 0 31 17 -1 16 -166 511 -223 670 -22 62 -92 271 -100 300 -15 54 -41 120 -52 132 -12 14 -19 14 -98 1z"/> <path d="M7722 22347 c-12 -13 -22 -28 -22 -35 0 -6 -6 -26 -14 -44 -8 -18 -22 -53 -31 -78 -10 -25 -23 -58 -30 -75 -7 -16 -20 -48 -28 -70 -19 -50 -74 -189 -93 -233 -8 -18 -14 -43 -14 -55 0 -15 54 -78 168 -194 92 -95 173 -173 178 -173 6 0 21 28 32 63 12 34 30 87 42 117 12 30 28 73 36 95 9 22 19 54 24 70 20 68 42 121 56 131 10 8 26 9 47 4 33 -9 112 -26 252 -55 44 -9 95 -20 112 -25 27 -7 40 -4 69 16 81 55 384 326 384 344 0 9 -93 30 -245 55 -55 9 -129 23 -165 30 -36 7 -110 20 -165 29 -55 9 -120 22 -145 27 -25 6 -70 15 -100 19 -30 4 -80 13 -110 18 -30 6 -82 16 -115 22 -33 5 -69 13 -80 16 -14 3 -28 -3 -43 -19z"/> </g> </svg>